{
	"asset":{
		"generator":"Khronos glTF Blender I/O v4.4.55",
		"version":"2.0"
	},
	"extensionsUsed":[
		"KHR_materials_specular"
	],
	"scene":0,
	"scenes":[
		{
			"name":"Scene",
			"nodes":[
				0,
				1,
				2,
				3,
				4
			]
		}
	],
	"nodes":[
		{
			"mesh":0,
			"name":"Card",
			"scale":[
				0.8560000061988831,
				0.007600000128149986,
				0.5397999882698059
			]
		},
		{
			"mesh":1,
			"name":"Tejory Text",
			"translation":[
				-0.7414430379867554,
				0,
				0.4410635232925415
			]
		},
		{
			"mesh":2,
			"name":"NFC Symbol",
			"rotation":[
				0,
				0.7071068286895752,
				0,
				0.7071068286895752
			],
			"translation":[
				-0.7231690287590027,
				0.006625134032219648,
				-0.38028866052627563
			]
		},
		{
			"mesh":3,
			"name":"Circle",
			"translation":[
				-0.6541627645492554,
				0.006625134032219648,
				-0.38028866052627563
			]
		},
		{
			"mesh":4,
			"name":"Icon",
			"scale":[
				0.6198517680168152,
				0.6198517680168152,
				0.6198517680168152
			],
			"translation":[
				0.5840964913368225,
				-0.2874656021595001,
				0
			]
		}
	],
	"materials":[
		{
			"doubleSided":true,
			"extensions":{
				"KHR_materials_specular":{
					"specularFactor":0
				}
			},
			"name":"Front",
			"pbrMetallicRoughness":{
				"baseColorFactor":[
					0.010960021056234837,
					0.010960102081298828,
					0.010960097424685955,
					1
				],
				"metallicFactor":0
			}
		},
		{
			"doubleSided":true,
			"extensions":{
				"KHR_materials_specular":{
					"specularFactor":0.4000000059604645
				}
			},
			"name":"Back",
			"pbrMetallicRoughness":{
				"baseColorTexture":{
					"index":0
				},
				"metallicFactor":0,
				"metallicRoughnessTexture":{
					"index":1
				}
			}
		},
		{
			"alphaMode":"BLEND",
			"doubleSided":true,
			"name":"Side",
			"pbrMetallicRoughness":{
				"baseColorTexture":{
					"index":2
				},
				"metallicRoughnessTexture":{
					"index":3
				}
			}
		},
		{
			"doubleSided":true,
			"extensions":{
				"KHR_materials_specular":{
					"specularColorFactor":[
						0.0,
						0.0,
						0.0
					]
				}
			},
			"name":"Tejory Text",
			"normalTexture":{
				"index":4
			},
			"pbrMetallicRoughness":{
				"baseColorFactor":[
					0,
					0,
					0,
					1
				],
				"metallicRoughnessTexture":{
					"index":5
				}
			}
		},
		{
			"doubleSided":true,
			"extensions":{
				"KHR_materials_specular":{
					"specularFactor":0.4000000059604645
				}
			},
			"name":"NFC Symbol",
			"normalTexture":{
				"index":6
			},
			"pbrMetallicRoughness":{
				"baseColorFactor":[
					0.800000011920929,
					0.800000011920929,
					0.800000011920929,
					1
				],
				"metallicRoughnessTexture":{
					"index":7
				}
			}
		},
		{
			"doubleSided":true,
			"extensions":{
				"KHR_materials_specular":{
					"specularColorFactor":[
						0.029556648805737495,
						0.029556868597865105,
						0.02955685555934906
					]
				}
			},
			"name":"Icon",
			"pbrMetallicRoughness":{
				"baseColorFactor":[
					0,
					0,
					0,
					1
				],
				"metallicFactor":0,
				"roughnessFactor":0.5
			}
		}
	],
	"meshes":[
		{
			"name":"Plane",
			"primitives":[
				{
					"attributes":{
						"POSITION":0,
						"NORMAL":1,
						"TEXCOORD_0":2
					},
					"indices":3,
					"material":0
				},
				{
					"attributes":{
						"POSITION":4,
						"NORMAL":5,
						"TEXCOORD_0":6
					},
					"indices":7,
					"material":1
				},
				{
					"attributes":{
						"POSITION":8,
						"NORMAL":9,
						"TEXCOORD_0":10
					},
					"indices":11,
					"material":2
				}
			]
		},
		{
			"name":"Text",
			"primitives":[
				{
					"attributes":{
						"POSITION":12,
						"NORMAL":13,
						"TEXCOORD_0":14
					},
					"indices":15,
					"material":3
				}
			]
		},
		{
			"name":"Mesh",
			"primitives":[
				{
					"attributes":{
						"POSITION":16,
						"NORMAL":17
					},
					"indices":18,
					"material":4
				}
			]
		},
		{
			"name":"Circle",
			"primitives":[
				{
					"attributes":{
						"POSITION":19,
						"NORMAL":20,
						"TEXCOORD_0":21
					},
					"indices":22,
					"material":4
				}
			]
		},
		{
			"name":"Plane.011",
			"primitives":[
				{
					"attributes":{
						"POSITION":23,
						"NORMAL":24,
						"TEXCOORD_0":25
					},
					"indices":26,
					"material":5
				}
			]
		}
	],
	"textures":[
		{
			"sampler":0,
			"source":0
		},
		{
			"sampler":1,
			"source":1
		},
		{
			"sampler":1,
			"source":2
		},
		{
			"sampler":1,
			"source":3
		},
		{
			"sampler":1,
			"source":4
		},
		{
			"sampler":1,
			"source":3
		},
		{
			"sampler":1,
			"source":4
		},
		{
			"sampler":1,
			"source":3
		}
	],
	"images":[
		{
			"mimeType":"image/png",
			"name":"tejory-nfc-back-no-bg-high-res",
			"uri":"tejory-nfc-back-no-bg-high-res.png"
		},
		{
			"mimeType":"image/png",
			"name":"tejory-nfc-back-no-bg-high-res-3",
			"uri":"tejory-nfc-back-no-bg-high-res-3.png"
		},
		{
			"mimeType":"image/png",
			"name":"gold-scuffed_basecolor-boosted-gold-scuffed_roughness",
			"uri":"gold-scuffed_basecolor-boosted-gold-scuffed_roughness.png"
		},
		{
			"mimeType":"image/png",
			"name":"gold-scuffed_metallic-gold-scuffed_roughness",
			"uri":"gold-scuffed_metallic-gold-scuffed_roughness.png"
		},
		{
			"mimeType":"image/png",
			"name":"gold-scuffed_normal",
			"uri":"gold-scuffed_normal.png"
		}
	],
	"accessors":[
		{
			"bufferView":0,
			"componentType":5126,
			"count":28,
			"max":[
				0.9988042712211609,
				0.7599999904632568,
				0.9988042712211609
			],
			"min":[
				-0.9988042712211609,
				0.7599999904632568,
				-0.9988042712211609
			],
			"type":"VEC3"
		},
		{
			"bufferView":1,
			"componentType":5126,
			"count":28,
			"type":"VEC3"
		},
		{
			"bufferView":2,
			"componentType":5126,
			"count":28,
			"type":"VEC2"
		},
		{
			"bufferView":3,
			"componentType":5123,
			"count":78,
			"type":"SCALAR"
		},
		{
			"bufferView":4,
			"componentType":5126,
			"count":28,
			"max":[
				0.9988042712211609,
				0,
				0.9988042712211609
			],
			"min":[
				-0.9988042712211609,
				0,
				-0.9988042712211609
			],
			"type":"VEC3"
		},
		{
			"bufferView":5,
			"componentType":5126,
			"count":28,
			"type":"VEC3"
		},
		{
			"bufferView":6,
			"componentType":5126,
			"count":28,
			"type":"VEC2"
		},
		{
			"bufferView":7,
			"componentType":5123,
			"count":78,
			"type":"SCALAR"
		},
		{
			"bufferView":8,
			"componentType":5126,
			"count":112,
			"max":[
				0.9988042712211609,
				0.7599999904632568,
				0.9988042712211609
			],
			"min":[
				-0.9988042712211609,
				0,
				-0.9988042712211609
			],
			"type":"VEC3"
		},
		{
			"bufferView":9,
			"componentType":5126,
			"count":112,
			"type":"VEC3"
		},
		{
			"bufferView":10,
			"componentType":5126,
			"count":112,
			"type":"VEC2"
		},
		{
			"bufferView":11,
			"componentType":5123,
			"count":168,
			"type":"SCALAR"
		},
		{
			"bufferView":12,
			"componentType":5126,
			"count":1346,
			"max":[
				0.668181836605072,
				0.007600000128149986,
				0.002615051344037056
			],
			"min":[
				0.0025078370235860348,
				0.003800000064074993,
				-0.1123824492096901
			],
			"type":"VEC3"
		},
		{
			"bufferView":13,
			"componentType":5126,
			"count":1346,
			"type":"VEC3"
		},
		{
			"bufferView":14,
			"componentType":5126,
			"count":1346,
			"type":"VEC2"
		},
		{
			"bufferView":15,
			"componentType":5123,
			"count":3684,
			"type":"SCALAR"
		},
		{
			"bufferView":16,
			"componentType":5126,
			"count":156,
			"max":[
				0.08178792148828506,
				0.0019000000320374966,
				0.05002675577998161
			],
			"min":[
				-0.08280620723962784,
				-0.0019000000320374966,
				-0.05397147312760353
			],
			"type":"VEC3"
		},
		{
			"bufferView":17,
			"componentType":5126,
			"count":156,
			"type":"VEC3"
		},
		{
			"bufferView":18,
			"componentType":5123,
			"count":900,
			"type":"SCALAR"
		},
		{
			"bufferView":19,
			"componentType":5126,
			"count":128,
			"max":[
				0.009999999776482582,
				0.0020000000949949026,
				0.009999999776482582
			],
			"min":[
				-0.009999999776482582,
				-0.0020000000949949026,
				-0.009999999776482582
			],
			"type":"VEC3"
		},
		{
			"bufferView":20,
			"componentType":5126,
			"count":128,
			"type":"VEC3"
		},
		{
			"bufferView":21,
			"componentType":5126,
			"count":128,
			"type":"VEC2"
		},
		{
			"bufferView":22,
			"componentType":5123,
			"count":756,
			"type":"SCALAR"
		},
		{
			"bufferView":23,
			"componentType":5126,
			"count":19434,
			"max":[
				0.45081716775894165,
				0.473206102848053,
				0.8785207271575928
			],
			"min":[
				-0.9989078044891357,
				0.4707271456718445,
				-0.8785207271575928
			],
			"type":"VEC3"
		},
		{
			"bufferView":24,
			"componentType":5126,
			"count":19434,
			"type":"VEC3"
		},
		{
			"bufferView":25,
			"componentType":5126,
			"count":19434,
			"type":"VEC2"
		},
		{
			"bufferView":26,
			"componentType":5123,
			"count":38370,
			"type":"SCALAR"
		}
	],
	"bufferViews":[
		{
			"buffer":0,
			"byteLength":336,
			"byteOffset":0,
			"target":34962
		},
		{
			"buffer":0,
			"byteLength":336,
			"byteOffset":336,
			"target":34962
		},
		{
			"buffer":0,
			"byteLength":224,
			"byteOffset":672,
			"target":34962
		},
		{
			"buffer":0,
			"byteLength":156,
			"byteOffset":896,
			"target":34963
		},
		{
			"buffer":0,
			"byteLength":336,
			"byteOffset":1052,
			"target":34962
		},
		{
			"buffer":0,
			"byteLength":336,
			"byteOffset":1388,
			"target":34962
		},
		{
			"buffer":0,
			"byteLength":224,
			"byteOffset":1724,
			"target":34962
		},
		{
			"buffer":0,
			"byteLength":156,
			"byteOffset":1948,
			"target":34963
		},
		{
			"buffer":0,
			"byteLength":1344,
			"byteOffset":2104,
			"target":34962
		},
		{
			"buffer":0,
			"byteLength":1344,
			"byteOffset":3448,
			"target":34962
		},
		{
			"buffer":0,
			"byteLength":896,
			"byteOffset":4792,
			"target":34962
		},
		{
			"buffer":0,
			"byteLength":336,
			"byteOffset":5688,
			"target":34963
		},
		{
			"buffer":0,
			"byteLength":16152,
			"byteOffset":6024,
			"target":34962
		},
		{
			"buffer":0,
			"byteLength":16152,
			"byteOffset":22176,
			"target":34962
		},
		{
			"buffer":0,
			"byteLength":10768,
			"byteOffset":38328,
			"target":34962
		},
		{
			"buffer":0,
			"byteLength":7368,
			"byteOffset":49096,
			"target":34963
		},
		{
			"buffer":0,
			"byteLength":1872,
			"byteOffset":56464,
			"target":34962
		},
		{
			"buffer":0,
			"byteLength":1872,
			"byteOffset":58336,
			"target":34962
		},
		{
			"buffer":0,
			"byteLength":1800,
			"byteOffset":60208,
			"target":34963
		},
		{
			"buffer":0,
			"byteLength":1536,
			"byteOffset":62008,
			"target":34962
		},
		{
			"buffer":0,
			"byteLength":1536,
			"byteOffset":63544,
			"target":34962
		},
		{
			"buffer":0,
			"byteLength":1024,
			"byteOffset":65080,
			"target":34962
		},
		{
			"buffer":0,
			"byteLength":1512,
			"byteOffset":66104,
			"target":34963
		},
		{
			"buffer":0,
			"byteLength":233208,
			"byteOffset":67616,
			"target":34962
		},
		{
			"buffer":0,
			"byteLength":233208,
			"byteOffset":300824,
			"target":34962
		},
		{
			"buffer":0,
			"byteLength":155472,
			"byteOffset":534032,
			"target":34962
		},
		{
			"buffer":0,
			"byteLength":76740,
			"byteOffset":689504,
			"target":34963
		}
	],
	"samplers":[
		{
			"magFilter":9729,
			"minFilter":9987,
			"wrapS":33071,
			"wrapT":33071
		},
		{
			"magFilter":9729,
			"minFilter":9987
		}
	],
	"buffers":[
		{
			"byteLength":766244,
			"uri":"latest-tejory-card-black-logo.bin"
		}
	]
}
